<mxfile host="app.diagrams.net" modified="2023-08-17T07:04:42.087Z" agent="Mozilla/5.0 (Windows NT 10.0; Win64; x64) AppleWebKit/537.36 (KHTML, like Gecko) Chrome/116.0.0.0 Safari/537.36" etag="TKdNt-ymSj3N7fr8pcI5" version="21.6.8" type="github">
  <diagram id="KDu2pqD8I73wpTm_DLH5" name="Страница 1">
    <mxGraphModel dx="1647" dy="-1477" grid="1" gridSize="10" guides="1" tooltips="1" connect="1" arrows="1" fold="1" page="1" pageScale="1" pageWidth="827" pageHeight="1169" math="0" shadow="0">
      <root>
        <mxCell id="0" />
        <mxCell id="1" parent="0" />
        <mxCell id="p7jQ2xvVFgrjoR0aqUAW-5" value="amqp-rpc" style="verticalAlign=bottom;endArrow=block;shadow=0;strokeWidth=1;fontSize=8;entryX=-0.033;entryY=0.001;entryDx=0;entryDy=0;entryPerimeter=0;fillColor=#f0a30a;strokeColor=#BD7000;" parent="1" edge="1">
          <mxGeometry relative="1" as="geometry">
            <mxPoint x="10" y="2400" as="sourcePoint" />
            <mxPoint x="110.36999999999989" y="2400" as="targetPoint" />
          </mxGeometry>
        </mxCell>
        <mxCell id="p7jQ2xvVFgrjoR0aqUAW-6" value="http" style="verticalAlign=bottom;endArrow=block;shadow=0;strokeWidth=1;fontSize=8;entryX=-0.033;entryY=0.001;entryDx=0;entryDy=0;entryPerimeter=0;gradientColor=#7ea6e0;fillColor=#dae8fc;strokeColor=#6c8ebf;" parent="1" edge="1">
          <mxGeometry relative="1" as="geometry">
            <mxPoint x="10" y="2430" as="sourcePoint" />
            <mxPoint x="110.36999999999989" y="2430" as="targetPoint" />
          </mxGeometry>
        </mxCell>
        <mxCell id="p7jQ2xvVFgrjoR0aqUAW-7" value="Прочее (зависит от типа &#xa;коннектора или шлюза&#xa; либо внутренний процесс) " style="verticalAlign=bottom;endArrow=block;shadow=0;strokeWidth=1;fontSize=8;entryX=-0.033;entryY=0.001;entryDx=0;entryDy=0;entryPerimeter=0;" parent="1" edge="1">
          <mxGeometry x="-0.1148" relative="1" as="geometry">
            <mxPoint x="10" y="2480" as="sourcePoint" />
            <mxPoint x="110.36999999999989" y="2480" as="targetPoint" />
            <mxPoint as="offset" />
          </mxGeometry>
        </mxCell>
        <mxCell id="p7jQ2xvVFgrjoR0aqUAW-8" value="Легенда" style="text;html=1;strokeColor=none;fillColor=none;align=center;verticalAlign=middle;whiteSpace=wrap;rounded=0;fontSize=13;" parent="1" vertex="1">
          <mxGeometry x="26" y="2360" width="40" height="20" as="geometry" />
        </mxCell>
        <mxCell id="p7jQ2xvVFgrjoR0aqUAW-9" value="Gateway" style="shape=umlLifeline;perimeter=lifelinePerimeter;container=1;collapsible=0;recursiveResize=0;rounded=1;shadow=0;strokeWidth=1;" parent="1" vertex="1">
          <mxGeometry x="348" y="2360" width="100" height="500" as="geometry" />
        </mxCell>
        <mxCell id="p7jQ2xvVFgrjoR0aqUAW-10" value="" style="points=[];perimeter=orthogonalPerimeter;rounded=1;shadow=0;strokeWidth=1;" parent="p7jQ2xvVFgrjoR0aqUAW-9" vertex="1">
          <mxGeometry x="45" y="80" width="10" height="390" as="geometry" />
        </mxCell>
        <mxCell id="p7jQ2xvVFgrjoR0aqUAW-11" value="&lt;span style=&quot;font-size: 10px&quot;&gt;2. Проверка &lt;br&gt;данных&lt;br&gt;авторизации&lt;/span&gt;" style="html=1;align=left;spacingLeft=2;endArrow=block;rounded=1;edgeStyle=orthogonalEdgeStyle;curved=0;rounded=0;exitX=0.974;exitY=0.002;exitDx=0;exitDy=0;exitPerimeter=0;entryX=0.994;entryY=0.127;entryDx=0;entryDy=0;entryPerimeter=0;" parent="p7jQ2xvVFgrjoR0aqUAW-9" source="p7jQ2xvVFgrjoR0aqUAW-10" target="p7jQ2xvVFgrjoR0aqUAW-10" edge="1">
          <mxGeometry x="-0.1064" relative="1" as="geometry">
            <mxPoint x="168" y="130" as="sourcePoint" />
            <Array as="points">
              <mxPoint x="89" y="81" />
              <mxPoint x="89" y="130" />
              <mxPoint x="69" y="130" />
              <mxPoint x="69" y="130" />
            </Array>
            <mxPoint x="168" y="170" as="targetPoint" />
            <mxPoint as="offset" />
          </mxGeometry>
        </mxCell>
        <mxCell id="p7jQ2xvVFgrjoR0aqUAW-12" value="Внешняя система" style="shape=umlLifeline;perimeter=lifelinePerimeter;container=1;collapsible=0;recursiveResize=0;rounded=1;shadow=0;strokeWidth=1;" parent="1" vertex="1">
          <mxGeometry x="167" y="2360" width="121" height="500" as="geometry" />
        </mxCell>
        <mxCell id="p7jQ2xvVFgrjoR0aqUAW-13" value="api-proxy" style="shape=umlLifeline;perimeter=lifelinePerimeter;container=1;collapsible=0;recursiveResize=0;rounded=1;shadow=0;strokeWidth=1;" parent="1" vertex="1">
          <mxGeometry x="516" y="2360" width="101" height="500" as="geometry" />
        </mxCell>
        <mxCell id="p7jQ2xvVFgrjoR0aqUAW-14" value="" style="points=[];perimeter=orthogonalPerimeter;rounded=1;shadow=0;strokeWidth=1;" parent="p7jQ2xvVFgrjoR0aqUAW-13" vertex="1">
          <mxGeometry x="45.5" y="250" width="10" height="90" as="geometry" />
        </mxCell>
        <mxCell id="p7jQ2xvVFgrjoR0aqUAW-15" value="&lt;font style=&quot;font-size: 10px&quot;&gt;4. Проверка&lt;br&gt;input параметров&lt;br&gt;&lt;/font&gt;" style="html=1;align=left;spacingLeft=2;endArrow=block;rounded=1;edgeStyle=orthogonalEdgeStyle;curved=0;rounded=0;exitX=1.041;exitY=0.002;exitDx=0;exitDy=0;exitPerimeter=0;entryX=1.217;entryY=0.789;entryDx=0;entryDy=0;entryPerimeter=0;" parent="p7jQ2xvVFgrjoR0aqUAW-13" source="p7jQ2xvVFgrjoR0aqUAW-14" target="p7jQ2xvVFgrjoR0aqUAW-14" edge="1">
          <mxGeometry relative="1" as="geometry">
            <mxPoint x="61" y="249.99999999999955" as="sourcePoint" />
            <Array as="points">
              <mxPoint x="84" y="250" />
              <mxPoint x="84" y="321" />
            </Array>
            <mxPoint x="61.82999999999993" y="300.9600000000005" as="targetPoint" />
          </mxGeometry>
        </mxCell>
        <mxCell id="p7jQ2xvVFgrjoR0aqUAW-16" value="api-data/&#xa;api-workflow" style="shape=umlLifeline;perimeter=lifelinePerimeter;container=1;collapsible=0;recursiveResize=0;rounded=1;shadow=0;strokeWidth=1;" parent="1" vertex="1">
          <mxGeometry x="687" y="2360" width="100" height="500" as="geometry" />
        </mxCell>
        <mxCell id="p7jQ2xvVFgrjoR0aqUAW-17" value="" style="points=[];perimeter=orthogonalPerimeter;rounded=1;shadow=0;strokeWidth=1;" parent="p7jQ2xvVFgrjoR0aqUAW-16" vertex="1">
          <mxGeometry x="45" y="380" width="10" height="80" as="geometry" />
        </mxCell>
        <mxCell id="p7jQ2xvVFgrjoR0aqUAW-18" value="" style="points=[];perimeter=orthogonalPerimeter;rounded=1;shadow=0;strokeWidth=1;" parent="1" vertex="1">
          <mxGeometry x="222.5" y="2440" width="10" height="400" as="geometry" />
        </mxCell>
        <mxCell id="p7jQ2xvVFgrjoR0aqUAW-19" value="1. Вызов метода для &#xa;подключения к шлюзу" style="verticalAlign=bottom;endArrow=block;shadow=0;strokeWidth=1;fontSize=10;exitX=1.05;exitY=0.001;exitDx=0;exitDy=0;exitPerimeter=0;entryX=0.019;entryY=0.001;entryDx=0;entryDy=0;entryPerimeter=0;" parent="1" source="p7jQ2xvVFgrjoR0aqUAW-18" target="p7jQ2xvVFgrjoR0aqUAW-10" edge="1">
          <mxGeometry relative="1" as="geometry">
            <mxPoint x="337" y="2470" as="sourcePoint" />
            <mxPoint x="337" y="2730" as="targetPoint" />
          </mxGeometry>
        </mxCell>
        <mxCell id="p7jQ2xvVFgrjoR0aqUAW-20" value="3.a. Возврат в ответе &lt;br&gt;ошибки авторизации" style="html=1;verticalAlign=bottom;endArrow=open;dashed=1;endSize=8;edgeStyle=elbowEdgeStyle;elbow=vertical;curved=0;rounded=1;exitX=-0.035;exitY=0.282;exitDx=0;exitDy=0;exitPerimeter=0;" parent="1" source="p7jQ2xvVFgrjoR0aqUAW-10" edge="1">
          <mxGeometry relative="1" as="geometry">
            <mxPoint x="637" y="2550" as="sourcePoint" />
            <mxPoint x="232" y="2550" as="targetPoint" />
            <Array as="points">
              <mxPoint x="307" y="2550" />
            </Array>
          </mxGeometry>
        </mxCell>
        <mxCell id="p7jQ2xvVFgrjoR0aqUAW-21" value="3.б. Запрос на проверку&#xa;input параметров &#xa;от внешней системы " style="verticalAlign=bottom;endArrow=block;shadow=0;strokeWidth=1;fontSize=10;gradientColor=#ffa500;fillColor=#ffcd28;strokeColor=#d79b00;entryX=0.073;entryY=0.003;entryDx=0;entryDy=0;entryPerimeter=0;" parent="1" target="p7jQ2xvVFgrjoR0aqUAW-14" edge="1">
          <mxGeometry relative="1" as="geometry">
            <mxPoint x="407" y="2610" as="sourcePoint" />
            <mxPoint x="557" y="2610" as="targetPoint" />
          </mxGeometry>
        </mxCell>
        <mxCell id="p7jQ2xvVFgrjoR0aqUAW-22" value="5. Ответ с &lt;br&gt;результатами проверки" style="html=1;verticalAlign=bottom;endArrow=open;dashed=1;endSize=8;fontSize=10;gradientColor=#ffa500;fillColor=#ffcd28;strokeColor=#d79b00;exitX=-0.15;exitY=0.893;exitDx=0;exitDy=0;exitPerimeter=0;entryX=0.994;entryY=0.641;entryDx=0;entryDy=0;entryPerimeter=0;" parent="1" source="p7jQ2xvVFgrjoR0aqUAW-14" target="p7jQ2xvVFgrjoR0aqUAW-10" edge="1">
          <mxGeometry relative="1" as="geometry">
            <mxPoint x="566.24" y="2660" as="sourcePoint" />
            <mxPoint x="407" y="2690" as="targetPoint" />
          </mxGeometry>
        </mxCell>
        <mxCell id="p7jQ2xvVFgrjoR0aqUAW-23" value="&lt;font style=&quot;font-size: 10px&quot;&gt;6. Запуск действия&amp;nbsp;ЖЦ или выполнение запроса,&lt;br&gt;&amp;nbsp;указанного в методе&lt;/font&gt;" style="html=1;verticalAlign=bottom;endArrow=block;fontSize=12;gradientColor=#7ea6e0;fillColor=#dae8fc;strokeColor=#6c8ebf;entryX=0.038;entryY=0.014;entryDx=0;entryDy=0;entryPerimeter=0;exitX=1.042;exitY=0.773;exitDx=0;exitDy=0;exitPerimeter=0;" parent="1" source="p7jQ2xvVFgrjoR0aqUAW-10" target="p7jQ2xvVFgrjoR0aqUAW-17" edge="1">
          <mxGeometry width="80" relative="1" as="geometry">
            <mxPoint x="407" y="2741" as="sourcePoint" />
            <mxPoint x="667" y="2850" as="targetPoint" />
          </mxGeometry>
        </mxCell>
        <mxCell id="p7jQ2xvVFgrjoR0aqUAW-24" value="&lt;font style=&quot;font-size: 10px&quot;&gt;7. Возврат ответа c необходимыми output параметрами&lt;br&gt;&lt;/font&gt;" style="html=1;verticalAlign=bottom;endArrow=open;dashed=1;endSize=8;fontSize=12;gradientColor=#7ea6e0;fillColor=#dae8fc;strokeColor=#6c8ebf;exitX=-0.128;exitY=0.875;exitDx=0;exitDy=0;exitPerimeter=0;entryX=1.018;entryY=0.949;entryDx=0;entryDy=0;entryPerimeter=0;" parent="1" source="p7jQ2xvVFgrjoR0aqUAW-17" target="p7jQ2xvVFgrjoR0aqUAW-10" edge="1">
          <mxGeometry x="-0.0048" relative="1" as="geometry">
            <mxPoint x="728.47" y="2812.14" as="sourcePoint" />
            <mxPoint x="407" y="2812" as="targetPoint" />
            <mxPoint as="offset" />
          </mxGeometry>
        </mxCell>
        <mxCell id="p7jQ2xvVFgrjoR0aqUAW-25" value="8. Ответ внешней системе&lt;br&gt;&amp;nbsp;с output параметрами" style="html=1;verticalAlign=bottom;endArrow=open;dashed=1;endSize=8;fontSize=12;gradientColor=#7ea6e0;fillColor=#dae8fc;strokeColor=#6c8ebf;exitX=0.067;exitY=0.9;exitDx=0;exitDy=0;exitPerimeter=0;" parent="1" edge="1">
          <mxGeometry x="-0.0048" relative="1" as="geometry">
            <mxPoint x="392.53999999999996" y="2810.2200000000003" as="sourcePoint" />
            <mxPoint x="237" y="2810" as="targetPoint" />
            <mxPoint as="offset" />
          </mxGeometry>
        </mxCell>
        <mxCell id="p7jQ2xvVFgrjoR0aqUAW-26" value="&lt;font style=&quot;font-size: 10px;&quot;&gt;alt. Наличие ошибок&lt;/font&gt;" style="shape=umlFrame;whiteSpace=wrap;html=1;pointerEvents=0;width=90;height=30;rounded=1;" parent="1" vertex="1">
          <mxGeometry x="127" y="2510" width="310" height="50" as="geometry" />
        </mxCell>
      </root>
    </mxGraphModel>
  </diagram>
</mxfile>
